Coordinates
version=1
nRows=17
nColumns=38
inDegrees=no

Units are S.I. units (second, meters, Newtons, ...)
If the header above contains a line with 'inDegrees', this indicates whether rotational values are in degrees (yes) or radians (no).

endheader
time	pelvis_tilt	pelvis_list	pelvis_rotation	pelvis_tx	pelvis_ty	pelvis_tz	hip_flexion_r	hip_adduction_r	hip_rotation_r	knee_angle_r	ankle_angle_r	subtalar_angle_r	mtp_angle_r	hip_flexion_l	hip_adduction_l	hip_rotation_l	knee_angle_l	ankle_angle_l	subtalar_angle_l	mtp_angle_l	lumbar_extension	lumbar_bending	lumbar_rotation	arm_flex_r	arm_add_r	arm_rot_r	elbow_flex_r	pro_sup_r	wrist_flex_r	wrist_dev_r	arm_flex_l	arm_add_l	arm_rot_l	elbow_flex_l	pro_sup_l	wrist_flex_l	wrist_dev_l
20.59	2.88302	1.33586	-1.25147	0.683625	-0.095754	0.951021	-0.291185	0.0574617	-0.0771882	0.275157	-0.19607	0	0	-0.282678	-0.14332	-0.0926009	0.316413	-0.132801	0	0	-0.306963	0.100981	0.0792791	0.183518	-0.498225	-0.081511	1.91125	1.5708	0	0	0.278398	-0.373364	0.234585	1.69093	1.5708	0	0
20.6	2.87908	1.33826	-1.24841	0.68368	-0.0951736	0.950825	-0.288823	0.0574274	-0.0768081	0.276044	-0.194398	0	0	-0.280731	-0.143174	-0.0926804	0.316778	-0.131561	0	0	-0.303598	0.102942	0.0736322	0.169524	-0.504013	-0.0613454	1.93178	1.5708	0	0	0.241164	-0.38258	0.223439	1.71378	1.5708	0	0
20.61	2.87695	1.34009	-1.24666	0.683685	-0.0946083	0.950674	-0.287816	0.0570543	-0.0760565	0.275705	-0.193439	0	0	-0.279498	-0.142875	-0.0923548	0.316693	-0.130801	0	0	-0.300847	0.104942	0.0670102	0.156355	-0.509906	-0.0378844	1.94915	1.5708	0	0	0.205631	-0.390868	0.214731	1.73056	1.5708	0	0
20.62	2.87554	1.34223	-1.24541	0.68365	-0.0940643	0.950465	-0.286643	0.056276	-0.0748552	0.274895	-0.192852	0	0	-0.277742	-0.14237	-0.0919186	0.316945	-0.130066	0	0	-0.297756	0.106725	0.0597607	0.143811	-0.516101	-0.011806	1.96306	1.5708	0	0	0.171006	-0.397172	0.207149	1.74149	1.5708	0	0
20.63	2.87384	1.34444	-1.24366	0.68358	-0.093553	0.950232	-0.285332	0.055891	-0.0731396	0.274044	-0.192251	0	0	-0.275621	-0.142018	-0.0915669	0.317617	-0.129329	0	0	-0.294593	0.108488	0.0523217	0.131466	-0.522517	0.0161089	1.97341	1.5708	0	0	0.137914	-0.401312	0.20071	1.74652	1.5708	0	0
20.64	2.87292	1.34621	-1.24204	0.683474	-0.0930293	0.950048	-0.284945	0.0558569	-0.0716748	0.272606	-0.191763	0	0	-0.274049	-0.14181	-0.0909618	0.317904	-0.128792	0	0	-0.291525	0.110273	0.0442224	0.119211	-0.528185	0.0463254	1.97951	1.5708	0	0	0.106599	-0.403542	0.195558	1.74496	1.5708	0	0
20.65	2.87381	1.3479	-1.2417	0.683354	-0.0925048	0.949875	-0.284992	0.0556581	-0.0706502	0.270582	-0.191461	0	0	-0.272674	-0.141314	-0.0900022	0.317932	-0.128311	0	0	-0.288212	0.111646	0.035594	0.107142	-0.533275	0.0780419	1.98067	1.5708	0	0	0.0778207	-0.4039	0.192114	1.73579	1.5708	0	0
20.66	2.87553	1.3495	-1.24183	0.683218	-0.0919888	0.949737	-0.28542	0.0553929	-0.0697937	0.26817	-0.191265	0	0	-0.271498	-0.140754	-0.0888816	0.31772	-0.127967	0	0	-0.284623	0.112793	0.027081	0.094953	-0.538015	0.110286	1.97654	1.5708	0	0	0.0527304	-0.402218	0.191253	1.71818	1.5708	0	0
20.67	2.87822	1.35094	-1.2429	0.683084	-0.0915224	0.94959	-0.285933	0.0551529	-0.0688389	0.265678	-0.191024	0	0	-0.270555	-0.140119	-0.0879683	0.317523	-0.127653	0	0	-0.280887	0.113736	0.0188268	0.083199	-0.541756	0.142815	1.96667	1.5708	0	0	0.0318878	-0.398776	0.193181	1.6919	1.5708	0	0
20.68	2.88205	1.35183	-1.2449	0.68293	-0.0911117	0.949471	-0.287083	0.0550016	-0.0679322	0.263164	-0.190678	0	0	-0.270235	-0.139544	-0.087375	0.317062	-0.127608	0	0	-0.277284	0.114615	0.0105688	0.0727979	-0.544536	0.175576	1.95045	1.5708	0	0	0.0156385	-0.393704	0.19796	1.65672	1.5708	0	0
20.69	2.88729	1.35246	-1.24814	0.682758	-0.090751	0.949347	-0.288789	0.054207	-0.0667119	0.260332	-0.190452	0	0	-0.270248	-0.138788	-0.0867614	0.31643	-0.127726	0	0	-0.273558	0.115356	0.00236258	0.0639322	-0.545906	0.209607	1.92794	1.5708	0	0	0.0038861	-0.387389	0.205703	1.61311	1.5708	0	0
20.7	2.93061	1.32854	-1.28675	0.682949	-0.0912671	0.950172	-0.321121	0.0538188	-0.0729846	0.250302	-0.191173	0	0	-0.298206	-0.139067	-0.0913351	0.314187	-0.128067	0	0	-0.294305	0.110576	0.00615754	0.0472426	-0.545411	0.225844	1.90317	1.5708	0	0	0.0113568	-0.368605	0.268338	1.50603	1.5708	0	0
20.71	2.93805	1.3255	-1.29186	0.682715	-0.0910255	0.950353	-0.327486	0.0536656	-0.0726587	0.24555	-0.192844	0	0	-0.302991	-0.1387	-0.0914063	0.311196	-0.129435	0	0	-0.294338	0.112046	-0.00122499	0.0408525	-0.543034	0.257109	1.86955	1.5708	0	0	0.00639336	-0.368784	0.286006	1.46075	1.5708	0	0
20.72	2.9422	1.32534	-1.29363	0.682461	-0.090717	0.950339	-0.330193	0.0535309	-0.0721671	0.241682	-0.194391	0	0	-0.304228	-0.138328	-0.0907549	0.309048	-0.130643	0	0	-0.28969	0.114008	-0.0110847	0.0396232	-0.539976	0.29223	1.82725	1.5708	0	0	0.00304261	-0.368578	0.305413	1.40914	1.5708	0	0
20.73	2.94497	1.32539	-1.2943	0.682246	-0.0904743	0.950246	-0.33205	0.053584	-0.0713415	0.239134	-0.194861	0	0	-0.304474	-0.138407	-0.0911178	0.308644	-0.13086	0	0	-0.284412	0.115918	-0.0218093	0.0419583	-0.535188	0.328919	1.77814	1.5708	0	0	-0.000313949	-0.366651	0.323178	1.35535	1.5708	0	0
20.74	2.94708	1.32551	-1.29414	0.682034	-0.090242	0.950138	-0.333971	0.053774	-0.0705971	0.236398	-0.194986	0	0	-0.304355	-0.138741	-0.0914731	0.308648	-0.130775	0	0	-0.278343	0.118283	-0.0340979	0.0473792	-0.528544	0.366991	1.72275	1.5708	0	0	-0.00389296	-0.362488	0.338324	1.29944	1.5708	0	0
20.75	2.95409	1.32378	-1.29942	0.681862	-0.0899281	0.950218	-0.338813	0.053196	-0.070394	0.231866	-0.196084	0	0	-0.307562	-0.138113	-0.0933249	0.306285	-0.13213	0	0	-0.273698	0.119895	-0.0474958	0.0557225	-0.520587	0.405967	1.66156	1.5708	0	0	-0.00823456	-0.357435	0.351579	1.24291	1.5708	0	0
